<?xml version="1.0" standalone="no"?>
<!DOCTYPE svg PUBLIC "-//W3C//DTD SVG 20010904//EN"
 "http://www.w3.org/TR/2001/REC-SVG-20010904/DTD/svg10.dtd">
<svg version="1.0" xmlns="http://www.w3.org/2000/svg"
 width="1024.000000pt" height="1024.000000pt" viewBox="0 0 1024.000000 1024.000000"
 preserveAspectRatio="xMidYMid meet">

<g transform="translate(0.000000,1024.000000) scale(0.100000,-0.100000)"
fill="#000000" stroke="none">
<path d="M5407 8608 c-13 -13 -166 -223 -338 -468 -172 -245 -396 -561 -496
-703 -106 -150 -183 -268 -183 -281 0 -13 8 -30 18 -39 16 -15 48 -17 241 -17
182 0 223 -3 227 -14 3 -8 -28 -133 -70 -278 -209 -735 -217 -767 -206 -788
18 -34 63 -26 98 18 16 20 245 339 508 707 512 717 512 717 465 764 -20 20
-31 21 -229 21 -137 0 -212 4 -219 11 -12 12 -8 32 158 630 60 218 109 403
109 412 0 15 -35 47 -52 47 -4 0 -18 -10 -31 -22z m-130 -1094 c-3 -3 -12 -4
-19 -1 -8 3 -5 6 6 6 11 1 17 -2 13 -5z m-790 -400 c-3 -3 -12 -4 -19 -1 -8 3
-5 6 6 6 11 1 17 -2 13 -5z m190 0 c-3 -3 -12 -4 -19 -1 -8 3 -5 6 6 6 11 1
17 -2 13 -5z m40 0 c-3 -3 -12 -4 -19 -1 -8 3 -5 6 6 6 11 1 17 -2 13 -5z
m116 -1 c-7 -2 -19 -2 -25 0 -7 3 -2 5 12 5 14 0 19 -2 13 -5z"/>
<path d="M5994 8421 c-55 -9 -99 -43 -118 -91 -14 -37 -16 -180 -16 -1495 l0
-1455 -175 0 -175 0 0 580 c0 630 0 632 -54 646 -59 14 -63 10 -276 -287 -113
-157 -239 -332 -280 -390 l-75 -103 -3 -223 -3 -223 -225 0 -224 0 0 628 c0
599 -1 629 -20 670 -15 33 -29 47 -62 62 -38 17 -67 20 -257 20 -199 0 -218
-2 -259 -21 -33 -16 -49 -32 -63 -63 -17 -39 -19 -78 -19 -668 l0 -628 -82 0
c-150 0 -249 -40 -349 -139 -101 -102 -149 -217 -149 -365 0 -150 52 -278 155
-381 33 -33 83 -72 111 -87 111 -60 54 -58 1531 -58 907 0 1377 4 1429 11 281
39 572 221 735 460 57 85 126 232 148 320 23 89 41 230 41 317 0 51 3 64 18
68 149 50 275 194 303 348 6 32 9 119 7 192 -3 153 -8 163 -80 171 l-43 5 -3
186 c-2 160 -5 189 -20 205 -27 30 -60 39 -99 26 -56 -18 -63 -45 -63 -244 l0
-175 -125 0 -125 0 0 174 c0 96 -4 186 -10 201 -6 15 -24 32 -45 41 -31 12
-39 12 -70 0 -21 -9 -39 -26 -45 -41 -6 -15 -10 -104 -10 -200 l0 -173 -45 -6
c-69 -11 -75 -26 -75 -191 0 -156 13 -226 58 -309 40 -76 121 -152 198 -188
l67 -31 -6 -109 c-18 -304 -152 -538 -400 -699 -109 -70 -221 -113 -342 -128
-66 -9 -441 -11 -1425 -9 l-1335 3 -57 28 c-70 35 -131 102 -154 169 -36 111
1 248 89 324 81 68 -20 64 1546 64 989 0 1428 3 1456 11 51 14 92 53 105 98 6
23 10 577 10 1531 l0 1496 -22 44 c-39 76 -69 85 -293 87 -104 1 -208 -2 -231
-6z m-1827 -4057 c-3 -3 -12 -4 -19 -1 -8 3 -5 6 6 6 11 1 17 -2 13 -5z m240
0 c-3 -3 -12 -4 -19 -1 -8 3 -5 6 6 6 11 1 17 -2 13 -5z"/>
<path d="M5974 3521 c-32 -14 -72 -68 -80 -106 -4 -24 0 -45 12 -71 27 -55 66
-79 124 -79 58 0 97 24 124 79 24 49 15 97 -28 143 -27 30 -40 36 -82 39 -27
2 -58 0 -70 -5z"/>
<path d="M1197 3473 c-4 -3 -7 -285 -7 -625 l0 -618 413 2 412 3 0 100 0 100
-295 3 -295 2 0 153 0 152 258 3 257 2 0 100 0 100 -255 2 -255 3 -2 157 -3
158 290 2 290 3 0 100 0 100 -401 3 c-220 1 -403 -1 -407 -5z"/>
<path d="M2165 3468 c-3 -7 -4 -287 -3 -623 l3 -610 113 -3 112 -3 -2 623 -3
623 -108 3 c-80 2 -109 -1 -112 -10z"/>
<path d="M6337 3474 c-10 -10 -9 -1232 1 -1238 6 -4 688 -10 745 -7 15 1 17
13 17 106 l0 105 -270 0 -270 0 -2 518 -3 517 -106 3 c-58 1 -108 -1 -112 -4z"/>
<path d="M4643 3384 c-10 -4 -13 -39 -13 -124 l0 -119 -67 -3 -68 -3 0 -90 0
-90 68 -3 67 -3 0 -262 c0 -161 4 -277 11 -302 7 -25 29 -58 58 -87 63 -63
122 -80 267 -76 l109 3 0 95 0 95 -77 5 c-67 4 -81 9 -104 31 -37 38 -43 81
-44 301 l0 197 113 3 112 3 0 90 0 90 -112 3 -112 3 -3 122 -3 122 -95 2 c-52
1 -101 -1 -107 -3z"/>
<path d="M3916 3159 c-126 -19 -269 -118 -329 -227 -77 -141 -76 -353 1 -496
119 -220 434 -298 652 -161 85 54 171 170 182 245 l3 25 -104 3 -104 3 -46
-52 c-78 -90 -175 -113 -277 -65 -92 43 -133 120 -133 251 -1 88 15 136 64
193 96 114 283 101 357 -24 l20 -34 109 0 c123 0 122 -1 94 80 -62 175 -279
290 -489 259z"/>
<path d="M7550 3160 c-160 -30 -269 -113 -337 -256 -170 -359 103 -752 483
-695 223 33 375 190 404 416 23 185 -53 365 -195 459 -101 68 -242 98 -355 76z
m161 -212 c160 -47 220 -293 110 -445 -63 -88 -193 -118 -297 -69 -92 43 -133
120 -133 251 -1 123 43 205 131 249 58 29 125 34 189 14z"/>
<path d="M8512 3154 c-196 -52 -303 -206 -303 -439 0 -258 116 -415 338 -456
108 -20 216 9 294 79 l52 47 -5 -81 c-7 -91 -28 -142 -79 -192 -79 -78 -250
-83 -391 -12 -65 32 -58 36 -112 -62 l-37 -67 42 -31 c137 -99 453 -118 593
-36 55 32 129 108 159 165 44 81 48 133 45 621 l-3 455 -105 0 -105 0 -5 -58
-5 -58 -40 41 c-48 50 -92 74 -163 89 -68 14 -104 13 -170 -5z m256 -220 c35
-17 60 -40 81 -71 37 -56 45 -93 39 -186 -10 -148 -88 -227 -226 -227 -185 0
-287 202 -196 388 55 113 185 155 302 96z"/>
<path d="M2827 3141 c-192 -63 -307 -233 -307 -453 0 -42 5 -101 11 -130 17
-80 74 -182 132 -234 99 -89 194 -119 347 -112 86 4 107 9 174 41 83 39 153
102 185 166 36 69 34 71 -77 71 -97 0 -99 0 -128 -31 -48 -51 -94 -69 -174
-69 -134 0 -211 64 -244 203 l-6 27 335 0 c303 0 336 2 342 17 10 27 -14 194
-37 256 -40 107 -128 194 -240 238 -80 31 -234 36 -313 10z m254 -184 c50 -27
96 -92 106 -150 l6 -37 -222 0 c-170 0 -221 3 -221 13 0 63 60 149 124 178 60
27 151 25 207 -4z"/>
<path d="M5610 3143 c-27 -10 -65 -37 -98 -70 -29 -29 -55 -53 -57 -53 -2 0
-5 26 -7 58 l-3 57 -108 3 -107 3 2 -458 3 -458 105 0 105 0 5 265 c5 251 6
267 28 312 29 58 89 113 139 127 21 6 66 11 101 11 l62 0 0 110 0 110 -62 -1
c-35 0 -83 -8 -108 -16z"/>
<path d="M5927 3134 c-4 -4 -7 -209 -7 -455 0 -398 2 -448 16 -453 32 -12 191
-7 203 8 8 9 10 138 9 457 l-3 444 -106 3 c-58 1 -108 -1 -112 -4z"/>
</g>
</svg>
